<svg version="1.1" xmlns="http://www.w3.org/2000/svg" xmlns:xlink="http://www.w3.org/1999/xlink" x="0px" y="0px"
	 width="200px" height="24.509px" viewBox="0 0 420.734 51.559" enable-background="new 0 0 420.734 51.559" preserveAspectRatio="xMinYMax meet"
	 xml:space="preserve">
<g id="Layer_1">
	<g>
		<path fill="#010101" d="M23.691,35.124h0.147V1.061h9.179v49.736H21.589L9.32,15.971h-0.14v34.826H0V1.061h11.572L23.691,35.124z"
			/>
		<path fill="#010101" d="M37.715,15.512c0.348-3.183,1.117-5.909,2.298-8.185c1.188-2.28,2.895-4.052,5.126-5.329
			c2.234-1.28,5.229-1.917,8.996-1.917c3.766,0,6.765,0.637,8.993,1.917c2.232,1.277,3.941,3.049,5.127,5.329
			c1.181,2.275,1.95,5.002,2.295,8.185c0.351,3.182,0.528,6.651,0.528,10.413c0,3.806-0.178,7.292-0.528,10.452
			c-0.345,3.156-1.114,5.875-2.295,8.15c-1.186,2.273-2.895,4.017-5.127,5.22c-2.229,1.21-5.228,1.812-8.993,1.812
			c-3.768,0-6.762-0.602-8.996-1.812c-2.231-1.203-3.938-2.946-5.126-5.22c-1.181-2.275-1.95-4.994-2.298-8.15
			c-0.348-3.16-0.523-6.646-0.523-10.452C37.191,22.163,37.367,18.693,37.715,15.512z M47.455,34.46
			c0.159,2.344,0.484,4.248,0.972,5.708c0.495,1.46,1.188,2.527,2.101,3.202c0.911,0.67,2.112,1.007,3.607,1.007
			c1.493,0,2.694-0.337,3.605-1.007c0.909-0.675,1.612-1.742,2.1-3.202c0.488-1.46,0.815-3.364,0.983-5.708
			c0.159-2.349,0.241-5.19,0.241-8.529c0-3.341-0.082-6.172-0.241-8.49c-0.168-2.323-0.495-4.228-0.983-5.71
			c-0.487-1.491-1.19-2.566-2.1-3.237c-0.911-0.671-2.112-1.011-3.605-1.011c-1.495,0-2.696,0.34-3.607,1.011
			c-0.912,0.671-1.605,1.746-2.101,3.237c-0.487,1.482-0.812,3.387-0.972,5.71c-0.171,2.318-0.249,5.149-0.249,8.49
			C47.206,29.27,47.284,32.111,47.455,34.46z"/>
		<path fill="#010101" d="M104.349,9.294H93.481v41.503H83.469V9.294H72.602V1.061h31.748V9.294z"/>
		<path fill="#010101" d="M112.174,15.432c0.354-3.182,1.117-5.91,2.305-8.187c1.189-2.273,2.895-4.051,5.125-5.329
			C121.833,0.639,124.831,0,128.596,0s6.764,0.639,8.992,1.916c2.234,1.278,3.945,3.056,5.125,5.329
			c1.189,2.276,1.955,5.005,2.307,8.187c0.348,3.183,0.521,6.65,0.521,10.412c0,3.808-0.174,7.293-0.521,10.452
			c-0.352,3.157-1.117,5.875-2.307,8.151c-1.18,2.275-2.891,4.017-5.125,5.226c-2.229,1.203-5.227,1.812-8.992,1.812
			s-6.764-0.609-8.992-1.812c-2.23-1.209-3.936-2.95-5.125-5.226c-1.188-2.276-1.951-4.994-2.305-8.151
			c-0.34-3.158-0.521-6.644-0.521-10.452C111.653,22.082,111.834,18.614,112.174,15.432z M121.915,34.38
			c0.162,2.342,0.49,4.246,0.979,5.707c0.488,1.46,1.193,2.527,2.102,3.203c0.91,0.673,2.111,1.007,3.602,1.007
			c1.496,0,2.697-0.334,3.609-1.007c0.91-0.676,1.605-1.743,2.1-3.203c0.49-1.461,0.814-3.365,0.975-5.707
			c0.168-2.35,0.248-5.191,0.248-8.53c0-3.342-0.08-6.171-0.248-8.492c-0.16-2.322-0.484-4.227-0.975-5.71
			c-0.494-1.488-1.189-2.564-2.1-3.237c-0.912-0.669-2.113-1.01-3.609-1.01c-1.49,0-2.691,0.341-3.602,1.01
			c-0.908,0.673-1.613,1.749-2.102,3.237c-0.488,1.483-0.816,3.388-0.979,5.71c-0.164,2.321-0.244,5.15-0.244,8.492
			C121.67,29.189,121.75,32.031,121.915,34.38z"/>
		<path fill="#010101" d="M173.385,35.044h0.145V0.981h9.182v49.741h-11.43l-12.264-34.832h-0.146v34.832h-9.178V0.981h11.568
			L173.385,35.044z"/>
		<path fill="#010101" d="M187.94,0.981h10.011v41.503h17.762v8.237H187.94V0.981z"/>
		<path fill="#010101" d="M226.592,20.206h0.139l6.952-19.225h10.872l-12.89,30.162v19.579H221.65V31.143L208.764,0.981h11.286
			L226.592,20.206z"/>
		<path fill="#010101" d="M262.838,0.901l5.504,36.781h0.139l5.852-36.781h9.615l5.85,36.781h0.139l5.498-36.781h9.615
			l-9.055,49.742H284.78l-5.576-36.088h-0.135l-5.574,36.088h-11.213l-9.057-49.742H262.838z"/>
		<path fill="#010101" d="M317.362,0.901V19.91h11.717V0.901h10.018v49.742h-10.018V28.546h-11.717v22.097h-10.01V0.901H317.362z"/>
		<path fill="#010101" d="M344.847,0.901h10.012v49.742h-10.012V0.901z"/>
		<path fill="#010101" d="M389.681,9.138H378.82v41.505h-10.018V9.138h-10.864V0.901h31.743V9.138z"/>
		<path fill="#010101" d="M420.037,9.138h-17.766v11.681h16.719v8.235h-16.719v13.351h18.463v8.238H392.26V0.901h27.776V9.138z"/>
	</g>
</g>
</svg>
