<svg version="1.1" xmlns="http://www.w3.org/2000/svg" xmlns:xlink="http://www.w3.org/1999/xlink" x="0px" y="0px"
	 width="106px" height="99.684px" viewBox="0 0 167.509 157.529" enable-background="new 0 0 167.509 157.529"
	 xml:space="preserve" preserveAspectRatio="xMinYMax meet">
<g id="Layer_1">
	<g>
		<path fill="#010101" d="M26.614,35.043h0.147V0.979h9.179v49.736H24.512L12.243,15.89h-0.14v34.826H2.923V0.979h11.572
			L26.614,35.043z"/>
		<path fill="#010101" d="M40.638,15.431c0.348-3.183,1.117-5.909,2.298-8.185c1.188-2.28,2.895-4.052,5.126-5.329
			C50.296,0.637,53.29,0,57.058,0c3.766,0,6.765,0.637,8.993,1.917c2.232,1.277,3.941,3.049,5.127,5.329
			c1.181,2.275,1.95,5.002,2.295,8.185c0.351,3.182,0.528,6.651,0.528,10.413c0,3.806-0.178,7.292-0.528,10.452
			c-0.345,3.156-1.114,5.875-2.295,8.15c-1.186,2.273-2.895,4.017-5.127,5.22c-2.229,1.21-5.228,1.812-8.993,1.812
			c-3.768,0-6.762-0.602-8.996-1.812c-2.231-1.203-3.938-2.946-5.126-5.22c-1.181-2.275-1.95-4.994-2.298-8.15
			c-0.348-3.16-0.523-6.646-0.523-10.452C40.114,22.082,40.29,18.612,40.638,15.431z M50.378,34.379
			c0.159,2.344,0.484,4.248,0.972,5.708c0.495,1.46,1.188,2.527,2.101,3.202c0.911,0.67,2.112,1.007,3.607,1.007
			c1.493,0,2.694-0.337,3.605-1.007c0.909-0.675,1.612-1.742,2.1-3.202c0.488-1.46,0.815-3.364,0.983-5.708
			c0.159-2.349,0.241-5.19,0.241-8.529c0-3.341-0.082-6.172-0.241-8.49c-0.168-2.323-0.495-4.228-0.983-5.71
			c-0.487-1.491-1.19-2.566-2.1-3.237c-0.911-0.671-2.112-1.011-3.605-1.011c-1.495,0-2.696,0.34-3.607,1.011
			c-0.912,0.671-1.605,1.746-2.101,3.237c-0.487,1.482-0.812,3.387-0.972,5.71c-0.171,2.318-0.249,5.149-0.249,8.49
			C50.129,29.188,50.207,32.03,50.378,34.379z"/>
		<path fill="#010101" d="M107.272,9.213H96.404v41.503H86.392V9.213H75.524V0.979h31.748V9.213z"/>
		<path fill="#010101" d="M2.392,68.834c0.354-3.182,1.117-5.91,2.306-8.187c1.188-2.273,2.895-4.051,5.124-5.329
			c2.229-1.277,5.228-1.916,8.993-1.916s6.764,0.639,8.991,1.916c2.234,1.278,3.945,3.056,5.126,5.329
			c1.188,2.276,1.955,5.005,2.306,8.187c0.348,3.183,0.522,6.65,0.522,10.412c0,3.808-0.175,7.293-0.522,10.452
			c-0.351,3.157-1.117,5.875-2.306,8.151c-1.181,2.275-2.892,4.017-5.126,5.226c-2.228,1.203-5.226,1.812-8.991,1.812
			s-6.764-0.609-8.993-1.812c-2.229-1.209-3.936-2.95-5.124-5.226c-1.188-2.276-1.952-4.994-2.306-8.151
			c-0.34-3.158-0.521-6.644-0.521-10.452C1.871,75.484,2.052,72.017,2.392,68.834z M12.132,87.783
			c0.162,2.342,0.49,4.246,0.979,5.707c0.488,1.46,1.193,2.527,2.101,3.203c0.911,0.673,2.112,1.007,3.603,1.007
			c1.495,0,2.696-0.334,3.608-1.007c0.911-0.676,1.606-1.743,2.1-3.203c0.49-1.461,0.814-3.365,0.975-5.707
			c0.168-2.35,0.249-5.191,0.249-8.53c0-3.342-0.081-6.171-0.249-8.492c-0.16-2.322-0.484-4.227-0.975-5.71
			c-0.493-1.488-1.188-2.564-2.1-3.237c-0.912-0.669-2.113-1.01-3.608-1.01c-1.49,0-2.691,0.341-3.603,1.01
			c-0.907,0.673-1.612,1.749-2.101,3.237c-0.489,1.483-0.817,3.388-0.979,5.71c-0.163,2.321-0.244,5.15-0.244,8.492
			C11.888,82.591,11.969,85.433,12.132,87.783z"/>
		<path fill="#010101" d="M63.604,88.447h0.145V54.384h9.182v49.741H61.499L49.235,69.293H49.09v34.832h-9.179V54.384h11.568
			L63.604,88.447z"/>
		<path fill="#010101" d="M78.157,54.384h10.011v41.503h17.762v8.237H78.157V54.384z"/>
		<path fill="#010101" d="M116.81,73.608h0.139l6.952-19.225h10.872l-12.89,30.162v19.579h-10.016V84.545L98.982,54.384h11.286
			L116.81,73.608z"/>
		<path fill="#010101" d="M9.613,107.787l5.504,36.781h0.14l5.851-36.781h9.615l5.85,36.781h0.14l5.497-36.781h9.616l-9.055,49.742
			H31.556l-5.576-36.088h-0.135l-5.575,36.088H9.057L0,107.787H9.613z"/>
		<path fill="#010101" d="M64.137,107.787v19.009h11.718v-19.009h10.017v49.742H75.854v-22.097H64.137v22.097H54.128v-49.742H64.137
			z"/>
		<path fill="#010101" d="M91.623,107.787h10.012v49.742H91.623V107.787z"/>
		<path fill="#010101" d="M136.457,116.024h-10.861v41.505h-10.018v-41.505h-10.864v-8.237h31.743V116.024z"/>
		<path fill="#010101" d="M166.812,116.024h-17.766v11.681h16.719v8.235h-16.719v13.351h18.463v8.238h-28.474v-49.742h27.776
			V116.024z"/>
	</g>
</g>
</svg>
